<svg width="113" height="114" viewBox="0 0 113 114" fill="none" xmlns="http://www.w3.org/2000/svg">
<path d="M106.177 16.68C96.9168 11.15 81.6468 24.47 77.7668 28.1C78.5494 25.7979 79.9054 23.733 81.7068 22.1C81.749 22.0669 81.7828 22.0243 81.8054 21.9756C81.828 21.9269 81.8388 21.8736 81.8368 21.82C81.8369 21.7684 81.8242 21.7176 81.7998 21.6722C81.7753 21.6268 81.7399 21.5883 81.6968 21.56C80.839 20.9802 79.8319 20.6607 78.7968 20.64C79.3295 19.9837 80.0139 19.4669 80.7909 19.1342C81.5679 18.8014 82.4142 18.6627 83.2568 18.73C83.319 18.7392 83.3825 18.7299 83.4394 18.7032C83.4963 18.6765 83.5441 18.6337 83.5768 18.58C83.6084 18.5253 83.625 18.4632 83.625 18.4C83.625 18.3368 83.6084 18.2747 83.5768 18.22C83.168 17.6016 82.6032 17.1021 81.9395 16.7719C81.2757 16.4418 80.5366 16.2928 79.7968 16.34C81.1068 15.34 84.0768 14.98 85.2768 14.94C85.3408 14.9394 85.4033 14.9201 85.4565 14.8846C85.5098 14.8491 85.5516 14.7988 85.5768 14.74C85.6014 14.6827 85.6097 14.6197 85.6009 14.558C85.592 14.4963 85.5664 14.4381 85.5268 14.39C84.3688 13.0431 82.7271 12.2061 80.9568 12.06C82.6168 10.06 87.5368 9.45998 87.5868 9.44998C87.657 9.44459 87.7235 9.41621 87.7759 9.3692C87.8283 9.3222 87.8638 9.25921 87.8768 9.19C87.8933 9.15127 87.9019 9.10965 87.9023 9.06757C87.9027 9.02548 87.8947 8.98375 87.8789 8.94473C87.8632 8.90572 87.8398 8.87019 87.8103 8.84021C87.7807 8.81023 87.7456 8.78636 87.7068 8.76999C86.1461 7.77614 84.3766 7.15667 82.5368 6.95999C84.5368 4.47999 90.8968 2.95999 90.9668 2.95999C91.0346 2.94411 91.0959 2.90776 91.1424 2.8559C91.1889 2.80403 91.2184 2.73913 91.2268 2.66998C91.2346 2.60176 91.2217 2.53277 91.1895 2.47208C91.1574 2.41139 91.1076 2.36185 91.0468 2.32999C86.7868 0.109987 81.5868 2.26999 81.3468 2.32999C75.3468 5.32999 75.0768 15.28 75.7068 22.17C73.3468 13.8 68.2168 0.69 59.1468 0C58.8468 0 51.7768 -2.3365e-05 47.8968 4.56998C47.8576 4.62559 47.8366 4.69196 47.8366 4.75998C47.8366 4.828 47.8576 4.89436 47.8968 4.94998C47.9318 5.00977 47.9837 5.05784 48.046 5.0881C48.1083 5.11837 48.1782 5.12947 48.2468 5.12C48.3368 5.12 56.7868 3.74998 60.2468 5.84998C58.1361 6.9444 56.3212 8.53285 54.9568 10.48C54.9159 10.5387 54.894 10.6085 54.894 10.68C54.894 10.7515 54.9159 10.8213 54.9568 10.88C54.9975 10.9372 55.0549 10.9804 55.1212 11.0037C55.1874 11.027 55.2592 11.0292 55.3268 11.01C55.3968 11.01 61.6668 9.25999 64.5468 10.96C63.5328 11.4515 62.6274 12.1409 61.8837 12.9875C61.1401 13.8342 60.5734 14.821 60.2168 15.89C60.1961 15.9508 60.1936 16.0162 60.2096 16.0784C60.2256 16.1406 60.2594 16.1967 60.3068 16.24C60.3516 16.2851 60.4088 16.3158 60.4711 16.3283C60.5335 16.3408 60.5981 16.3344 60.6568 16.31C62.1468 15.76 66.0268 14.67 68.0268 15.41C67.106 15.6779 66.2758 16.192 65.6255 16.8968C64.9753 17.6017 64.5297 18.4706 64.3368 19.41C64.3271 19.4726 64.335 19.5366 64.3598 19.5949C64.3845 19.6532 64.425 19.7035 64.4768 19.74C64.5315 19.7716 64.5936 19.7882 64.6568 19.7882C64.72 19.7882 64.7821 19.7716 64.8368 19.74C65.8259 19.2307 66.9279 18.9801 68.04 19.0116C69.152 19.0431 70.2381 19.3556 71.1968 19.92C69.9482 20.4256 68.8792 21.2927 68.1268 22.41C68.1023 22.4562 68.0895 22.5077 68.0895 22.56C68.0895 22.6123 68.1023 22.6638 68.1268 22.71C68.1453 22.7593 68.1747 22.8038 68.2128 22.8401C68.2509 22.8765 68.2967 22.9038 68.3468 22.92C71.2902 23.9759 73.909 25.7781 75.9468 28.15C71.0068 26.24 54.2468 20.49 48.3668 28.15C48.2268 28.36 44.9168 33.35 46.3668 38.24C46.3867 38.3056 46.4261 38.3636 46.4796 38.4064C46.5332 38.4493 46.5984 38.4749 46.6668 38.48H46.7168C46.7767 38.4736 46.834 38.4518 46.8831 38.4168C46.9321 38.3817 46.9713 38.3346 46.9968 38.28C46.9968 38.21 49.9168 31.77 52.9368 30.28C52.7567 32.2525 53.0445 34.2396 53.7768 36.08C53.8 36.1458 53.8435 36.2025 53.901 36.242C53.9585 36.2816 54.0271 36.3019 54.0968 36.3C54.1687 36.2989 54.2383 36.2751 54.2958 36.232C54.3533 36.1889 54.3957 36.1287 54.4168 36.06C54.4168 36.01 56.0668 30.93 58.5268 29.62C58.4173 30.5555 58.4933 31.5034 58.7507 32.4094C59.0081 33.3155 59.4418 34.1618 60.0268 34.9C60.0669 34.949 60.1203 34.9855 60.1806 35.005C60.2409 35.0245 60.3055 35.0262 60.3668 35.01C60.4284 34.9975 60.485 34.9671 60.5295 34.9226C60.5739 34.8782 60.6043 34.8216 60.6168 34.76C60.9068 33.5 61.8768 30.4 63.2468 29.26C63.0378 30.0276 63.0369 30.837 63.2443 31.605C63.4517 32.373 63.8598 33.0719 64.4268 33.63C64.4735 33.672 64.5306 33.7006 64.5922 33.713C64.6538 33.7253 64.7176 33.7208 64.7768 33.7C64.8365 33.6765 64.8887 33.637 64.9275 33.5858C64.9663 33.5347 64.9903 33.4739 64.9968 33.41C65.1021 32.5062 65.4257 31.6416 65.9396 30.8907C66.4536 30.1399 67.1424 29.5253 67.9468 29.1C67.7476 30.192 67.8728 31.3184 68.3068 32.34C68.3268 32.388 68.3582 32.4303 68.3983 32.4634C68.4384 32.4965 68.4859 32.5194 68.5368 32.53C68.5873 32.5411 68.6396 32.5406 68.6899 32.5285C68.7401 32.5164 68.787 32.4929 68.8268 32.46C69.6169 31.8403 70.48 31.3197 71.3968 30.91C70.9964 31.2794 70.6855 31.7354 70.488 32.2432C70.2904 32.7509 70.2113 33.2971 70.2568 33.84C70.3382 34.7932 70.7947 35.6752 71.526 36.2921C72.2572 36.9089 73.2035 37.2103 74.1568 37.13C74.9405 37.0612 75.6792 36.7341 76.2568 36.2C77.1068 38.42 80.3568 49.06 74.8568 70.2C67.4368 72.43 66.2568 74.77 65.2268 76.84C64.8928 77.5921 64.4478 78.2899 63.9068 78.91C63.384 79.649 63.0748 80.5177 63.0131 81.4209C62.9513 82.324 63.1395 83.2267 63.5568 84.03C64.9268 86.89 69.4368 90.03 83.0968 88.88C92.4968 88.08 98.2868 85.88 100.307 82.34C100.717 81.6619 100.963 80.8975 101.025 80.1076C101.088 79.3177 100.965 78.5241 100.667 77.79C98.6668 73.01 93.5468 69.14 88.6668 68.67C87.8868 60.96 85.4968 42.89 79.8368 35.67C80.0761 35.695 80.3175 35.695 80.5568 35.67C81.5109 35.5861 82.3928 35.1274 83.0095 34.3946C83.6261 33.6617 83.9272 32.7144 83.8468 31.76C83.7846 31.0427 83.5082 30.3607 83.0535 29.8026C82.5987 29.2444 81.9867 28.8358 81.2968 28.63C83.2231 28.4626 85.1639 28.6422 87.0268 29.16C87.0719 29.1821 87.1215 29.1935 87.1718 29.1935C87.222 29.1935 87.2716 29.1821 87.3168 29.16C87.3611 29.1322 87.398 29.094 87.4242 29.0487C87.4503 29.0033 87.465 28.9523 87.4668 28.9C87.492 27.6563 87.1436 26.4337 86.4668 25.39C87.483 25.4859 88.4592 25.8332 89.3077 26.4005C90.1561 26.9679 90.85 27.7375 91.3268 28.64C91.3544 28.6962 91.3971 28.7437 91.45 28.7773C91.503 28.8108 91.5642 28.829 91.6268 28.83C91.6895 28.829 91.7506 28.8108 91.8036 28.7773C91.8565 28.7437 91.8992 28.6962 91.9268 28.64C92.2897 27.8305 92.4256 26.9376 92.3199 26.0568C92.2142 25.176 91.8709 24.3406 91.3268 23.64C93.2068 24.19 95.5268 27.04 96.3268 28.24C96.3611 28.2896 96.4078 28.3295 96.4621 28.3557C96.5164 28.382 96.5766 28.3938 96.6368 28.39C96.7003 28.3806 96.7596 28.3528 96.8076 28.3102C96.8555 28.2676 96.89 28.2119 96.9068 28.15C97.2031 27.1583 97.3008 26.1178 97.1944 25.0882C97.088 24.0587 96.7796 23.0602 96.2868 22.15C99.3568 22.45 103.137 27.06 103.177 27.15C103.222 27.2045 103.282 27.2442 103.35 27.2638C103.418 27.2835 103.49 27.2821 103.557 27.26C103.625 27.2377 103.684 27.1931 103.724 27.1332C103.764 27.0733 103.783 27.0017 103.777 26.93C103.785 24.7374 103.271 22.5743 102.277 20.62C105.987 20.9 111.617 26.4 111.677 26.46C111.726 26.5085 111.789 26.5403 111.857 26.5511C111.925 26.5618 111.995 26.551 112.057 26.52C112.119 26.4914 112.17 26.4443 112.204 26.3852C112.238 26.3261 112.253 26.2579 112.247 26.19C111.817 20.62 106.427 16.85 106.177 16.68ZM88.2868 72.29C88.1559 73.3407 87.7251 74.3314 87.0459 75.1437C86.3666 75.9559 85.4678 76.5553 84.4568 76.87C81.6168 77.87 77.6068 77.21 75.7068 75.43C75.3198 75.1157 75.0305 74.6976 74.8728 74.2246C74.7152 73.7517 74.6957 73.2436 74.8168 72.76L75.0568 71.88C77.5164 72.7941 80.136 73.1989 82.7568 73.07C84.7981 72.9877 86.7289 72.1208 88.1468 70.65C88.2368 71.56 88.2768 72.14 88.2868 72.29ZM88.0568 69.69C84.6268 74.3 76.7968 71.79 75.2268 71.22C75.6868 69.52 76.0901 67.8866 76.4368 66.32C78.2041 67.411 80.2791 67.8956 82.3468 67.7C84.2209 67.5011 86.0293 66.8972 87.6468 65.93C87.8168 67.39 87.9568 68.67 88.0568 69.69ZM87.5568 65.2C81.5568 68.8 77.4368 66.2 76.5568 65.61C76.8968 64.04 77.1768 62.54 77.4268 61.11C79.0391 61.6306 80.7376 61.831 82.4268 61.7C83.9715 61.5775 85.4702 61.1166 86.8168 60.35C87.1468 62.08 87.3668 63.77 87.5568 65.2ZM77.5568 60.43C77.8068 58.93 78.0068 57.49 78.1568 56.14C79.48 56.624 80.8932 56.8117 82.2968 56.69C83.6082 56.5788 84.8804 56.1866 86.0268 55.54C86.2968 56.93 86.5268 58.3 86.7368 59.63C85.3496 60.3932 83.8185 60.8586 82.2412 60.9963C80.6639 61.1341 79.0753 60.9412 77.5768 60.43H77.5568ZM78.2268 55.43C78.3568 54.15 78.4568 52.93 78.5168 51.78C79.6465 52.1552 80.8405 52.298 82.0268 52.2C83.125 52.1022 84.1874 51.7605 85.1368 51.2C85.4068 52.39 85.6668 53.6 85.8968 54.79C84.75 55.4597 83.4684 55.8656 82.1451 55.978C80.8218 56.0904 79.4902 55.9067 78.2468 55.44L78.2268 55.43ZM78.5568 51.07C78.5568 50 78.6168 48.99 78.6068 48.07C79.3454 48.2044 80.0985 48.2414 80.8468 48.18C82.0014 48.1021 83.1105 47.7 84.0468 47.02C84.3768 48.18 84.6868 49.37 84.9668 50.57C84.0024 51.1134 82.9314 51.4405 81.8279 51.5286C80.7245 51.6167 79.6151 51.4636 78.5768 51.08L78.5568 51.07ZM78.6068 47.34C78.6068 46.15 78.5268 45.06 78.4368 44.06C78.9744 44.1817 79.5277 44.2188 80.0768 44.17C81.0677 44.0806 82.0186 43.7361 82.8368 43.17C83.1868 44.17 83.5268 45.17 83.8368 46.26C83.0928 46.7956 82.2447 47.1694 81.3473 47.3571C80.45 47.5449 79.5232 47.5424 78.6268 47.35L78.6068 47.34ZM78.3768 43.34C78.2901 42.5 78.1901 41.73 78.0768 41.03C78.3927 41.0609 78.7109 41.0609 79.0268 41.03C79.9501 40.9656 80.8306 40.6162 81.5468 40.03C81.9168 40.82 82.2568 41.66 82.5968 42.53C82.0061 42.9788 81.3202 43.2861 80.5921 43.4283C79.864 43.5704 79.113 43.5436 78.3968 43.35L78.3768 43.34ZM77.9668 40.34C77.8168 39.54 77.6668 38.85 77.5168 38.26C77.723 38.28 77.9306 38.28 78.1368 38.26C78.8915 38.2083 79.602 37.885 80.1368 37.35C80.5542 37.9946 80.9348 38.6624 81.2768 39.35C80.8373 39.7508 80.3139 40.0486 79.7447 40.2216C79.1756 40.3946 78.575 40.4384 77.9868 40.35L77.9668 40.34ZM77.3168 37.54C77.1268 36.88 76.9568 36.39 76.8268 36.05H77.2568C77.7872 36.0013 78.2999 35.8338 78.7568 35.56C79.1134 35.9435 79.4473 36.3475 79.7568 36.77C79.4581 37.102 79.0769 37.3491 78.6519 37.4861C78.2268 37.6231 77.7731 37.6451 77.3368 37.55L77.3168 37.54ZM78.6268 34.85C78.2985 35.075 77.9288 35.2324 77.539 35.3131C77.1493 35.3938 76.7474 35.3961 76.3568 35.32C75.7378 35.1929 75.1766 34.8691 74.7567 34.397C74.3368 33.9248 74.0807 33.3295 74.0268 32.7C73.9924 32.3221 74.033 31.9412 74.1463 31.5791C74.2595 31.217 74.4432 30.8809 74.6868 30.59C74.9309 30.287 75.2341 30.0367 75.5779 29.8545C75.9217 29.6723 76.299 29.5619 76.6868 29.53H77.1168C77.4878 29.5487 77.8514 29.6404 78.1868 29.8C78.6509 30.0188 79.0495 30.3556 79.3426 30.7768C79.6356 31.198 79.813 31.6887 79.8568 32.2C79.9076 32.7107 79.8224 33.2257 79.6099 33.6929C79.3974 34.1601 79.0651 34.5627 78.6468 34.86L78.6268 34.85ZM81.6268 3.01999C82.9096 2.52295 84.2563 2.20986 85.6268 2.09C87.059 1.94115 88.5063 2.1084 89.8668 2.57999C87.7768 3.15999 82.8668 4.74 81.6268 7.16C81.5949 7.21095 81.5779 7.26985 81.5779 7.32999C81.5779 7.39012 81.5949 7.44905 81.6268 7.5C81.658 7.55031 81.7026 7.59095 81.7556 7.61743C81.8085 7.64391 81.8678 7.6552 81.9268 7.64999C83.526 7.68824 85.0916 8.1174 86.4868 8.89999C84.7068 9.22999 81.0568 10.13 79.9968 12.19C79.9678 12.2402 79.9526 12.2971 79.9526 12.355C79.9526 12.4129 79.9678 12.4698 79.9968 12.52C80.0276 12.5714 80.0718 12.6134 80.1246 12.6416C80.1775 12.6698 80.237 12.6831 80.2968 12.68C81.8354 12.6871 83.3184 13.2561 84.4668 14.28C82.9468 14.41 79.5168 14.9 78.6368 16.57C78.6031 16.624 78.5852 16.6864 78.5852 16.75C78.5852 16.8136 78.6031 16.876 78.6368 16.93C78.6725 16.9847 78.7246 17.0268 78.7857 17.0501C78.8468 17.0735 78.9136 17.0769 78.9768 17.06C79.6007 16.9346 80.2456 16.96 80.8579 17.1339C81.4701 17.3078 82.0319 17.6253 82.4968 18.06C81.5344 18.077 80.5926 18.3417 79.7624 18.8286C78.9321 19.3156 78.2413 20.0083 77.7568 20.84C77.7251 20.8929 77.7083 20.9533 77.7083 21.015C77.7083 21.0766 77.7251 21.1371 77.7568 21.19C77.7913 21.2419 77.8393 21.2834 77.8958 21.3098C77.9522 21.3363 78.0148 21.3467 78.0768 21.34C79.0218 21.2747 79.9672 21.461 80.8168 21.88C79.1183 23.5227 77.8273 25.5397 77.0468 27.77C76.3368 22.97 74.1168 6.82 81.7068 3.03L81.6268 3.01999ZM68.8568 22.52C69.6655 21.56 70.7248 20.8434 71.9168 20.45C71.9768 20.4328 72.0309 20.3995 72.0733 20.3537C72.1156 20.3078 72.1445 20.2512 72.1568 20.19C72.1665 20.1284 72.1596 20.0653 72.1367 20.0073C72.1138 19.9493 72.0759 19.8984 72.0268 19.86C71.0371 19.118 69.8715 18.6458 68.6444 18.4898C67.4173 18.3338 66.1707 18.4993 65.0268 18.97C65.8368 16.47 68.6868 15.97 68.8168 15.91C68.8807 15.9018 68.9407 15.8745 68.9889 15.8317C69.0371 15.7889 69.0712 15.7325 69.0868 15.67C69.1015 15.6071 69.0991 15.5415 69.0797 15.4799C69.0604 15.4183 69.0248 15.3631 68.9768 15.32C67.1168 13.76 62.6868 14.97 60.9768 15.52C61.814 13.665 63.3266 12.1989 65.2068 11.42C65.2636 11.4007 65.3142 11.3664 65.3529 11.3206C65.3917 11.2747 65.4172 11.2192 65.4268 11.16C65.437 11.1017 65.4323 11.0418 65.413 10.9858C65.3938 10.9298 65.3607 10.8797 65.3168 10.84C63.0368 8.89 58.0768 9.72 55.9768 10.19C57.2692 8.50248 58.969 7.17083 60.9168 6.31998C60.9731 6.29981 61.0231 6.26516 61.0617 6.21951C61.1003 6.17386 61.1262 6.11885 61.1368 6.06C61.149 6.0017 61.1453 5.94117 61.1259 5.88483C61.1066 5.82849 61.0723 5.77843 61.0268 5.73999C58.3168 3.45999 51.5268 4.06997 49.0268 4.37997C52.8068 0.719974 59.0268 0.73999 59.0868 0.73999C70.0068 1.57999 75.1768 22.33 76.3568 27.86C74.3425 25.501 71.7813 23.6711 68.8968 22.53L68.8568 22.52ZM68.7068 31.77C68.4413 30.7876 68.4413 29.7524 68.7068 28.77C68.7254 28.7106 68.7268 28.6472 68.7109 28.587C68.6949 28.5268 68.6623 28.4724 68.6168 28.43C68.5733 28.3862 68.5184 28.3555 68.4583 28.3413C68.3982 28.3272 68.3353 28.3302 68.2768 28.35C67.3075 28.6954 66.4434 29.2843 65.7674 30.0602C65.0914 30.836 64.6263 31.7726 64.4168 32.78C64.0466 32.1973 63.8232 31.5336 63.7657 30.8456C63.7082 30.1577 63.8184 29.466 64.0868 28.83C64.1208 28.778 64.1389 28.7172 64.1389 28.655C64.1389 28.5928 64.1208 28.532 64.0868 28.48C64.0439 28.4319 63.9883 28.3969 63.9263 28.3792C63.8643 28.3615 63.7986 28.3618 63.7368 28.38C61.7968 28.95 60.5968 32.5 60.1668 34.03C59.3005 32.612 58.9939 30.9219 59.3068 29.29C59.3192 29.2325 59.3165 29.1729 59.299 29.1168C59.2815 29.0607 59.2497 29.0102 59.2068 28.97C59.1655 28.926 59.1123 28.895 59.0537 28.8808C58.9951 28.8666 58.9336 28.8698 58.8768 28.89C56.4968 29.58 54.8068 33.29 54.1268 35.06C53.5766 33.4188 53.4358 31.668 53.7168 29.96C53.7334 29.902 53.7338 29.8406 53.7179 29.7824C53.702 29.7242 53.6705 29.6715 53.6268 29.63C53.5842 29.588 53.531 29.5584 53.4729 29.5443C53.4148 29.5302 53.3539 29.5322 53.2968 29.55C50.4868 30.39 47.8268 35.25 46.8168 37.28C46.0868 32.99 48.9068 28.73 48.9268 28.7C50.6268 26.5 53.3568 25.51 56.4768 25.24C63.5268 24.64 72.4768 27.76 75.7868 29.01C73.2403 29.3515 70.8126 30.2979 68.7068 31.77ZM74.5068 29.92L74.3368 30.08H74.0368L74.5068 29.92ZM70.8768 33.92C70.8439 33.5357 70.8872 33.1488 71.0042 32.7813C71.1212 32.4138 71.3096 32.073 71.5586 31.7785C71.8076 31.484 72.1123 31.2416 72.4552 31.0651C72.7981 30.8886 73.1724 30.7815 73.5568 30.75H73.8568V30.8C73.8568 30.85 73.8068 30.91 73.7768 30.96C73.7084 31.0962 73.6483 31.2365 73.5968 31.38L73.5368 31.59C73.4963 31.7309 73.4662 31.8746 73.4468 32.02V32.21C73.4268 32.4262 73.4268 32.6438 73.4468 32.86C73.4621 33.0421 73.4922 33.2227 73.5368 33.4C73.5368 33.46 73.5368 33.52 73.5868 33.58L73.7068 33.92L73.7968 34.11C73.8441 34.2098 73.8976 34.3067 73.9568 34.4L74.0768 34.59C74.1345 34.6775 74.198 34.761 74.2668 34.84L74.4168 35.01C74.4884 35.0916 74.5652 35.1684 74.6468 35.24L74.8168 35.38C74.9025 35.4522 74.9927 35.519 75.0868 35.58L75.2568 35.69C75.4009 35.7719 75.5514 35.8421 75.7068 35.9C75.2447 36.2925 74.6711 36.5303 74.0668 36.58C73.6749 36.6169 73.2796 36.5748 72.9044 36.4561C72.5291 36.3375 72.1815 36.1446 71.8821 35.8891C71.5828 35.6336 71.3377 35.3205 71.1616 34.9685C70.9855 34.6165 70.8818 34.2328 70.8568 33.84L70.8768 33.92ZM100.027 78.21C100.282 78.8583 100.383 79.5571 100.323 80.2512C100.262 80.9453 100.041 81.6159 99.6768 82.21C98.3668 84.49 94.4068 87.42 83.0068 88.4C69.0068 89.59 65.1768 86.11 64.1268 83.92C63.7749 83.2377 63.6116 82.4738 63.6538 81.7073C63.696 80.9408 63.9421 80.1995 64.3668 79.56C64.9544 78.8919 65.4397 78.1404 65.8068 77.33C66.8068 75.33 67.8568 73.27 74.6168 71.16C74.4868 71.67 74.3468 72.16 74.2068 72.7C74.0418 73.3014 74.0561 73.9379 74.248 74.5313C74.4398 75.1247 74.8009 75.649 75.2868 76.04C76.2864 76.8369 77.4333 77.429 78.6618 77.7824C79.8904 78.1359 81.1765 78.2438 82.4468 78.1C83.2236 78.0338 83.9893 77.8727 84.7268 77.62C85.8596 77.2635 86.8657 76.5883 87.6248 75.6749C88.3838 74.7616 88.8636 73.6489 89.0068 72.47V72.4C89.0068 72.19 88.9168 71.15 88.7568 69.54C91.1941 69.9352 93.4962 70.9261 95.4587 72.4246C97.4212 73.923 98.9835 75.8828 100.007 78.13L100.027 78.21ZM83.1668 32.01C83.1997 32.3935 83.1568 32.7797 83.0404 33.1465C82.924 33.5134 82.7365 33.8538 82.4885 34.1481C82.2406 34.4425 81.9371 34.6852 81.5953 34.8622C81.2536 35.0393 80.8803 35.1473 80.4968 35.18C80.1614 35.2125 79.8228 35.1854 79.4968 35.1C79.5568 35.05 79.5968 34.99 79.6568 34.93L79.7368 34.84C79.8268 34.73 79.9168 34.61 79.9968 34.49C80.0668 34.38 80.1268 34.26 80.1868 34.15L80.2468 34.02C80.2468 33.93 80.3168 33.84 80.3468 33.74C80.3768 33.64 80.3468 33.64 80.3968 33.59C80.426 33.4982 80.4494 33.4047 80.4668 33.31V33.16V32.86C80.4714 32.8134 80.4714 32.7666 80.4668 32.72C80.4768 32.5702 80.4768 32.4198 80.4668 32.27C80.4668 32.12 80.4668 31.98 80.3968 31.83C80.3268 31.68 80.3968 31.74 80.3968 31.69C80.3968 31.64 80.3468 31.5 80.3168 31.41L80.2568 31.25C80.2243 31.1649 80.1876 31.0814 80.1468 31C80.1241 30.948 80.0973 30.8978 80.0668 30.85C80.0668 30.77 79.9768 30.69 79.9268 30.61L79.8368 30.48C79.7755 30.3867 79.7051 30.2996 79.6268 30.22L79.5668 30.14C79.4718 30.0383 79.3716 29.9415 79.2668 29.85L79.1468 29.76L78.9768 29.62C79.275 29.4895 79.5925 29.4084 79.9168 29.38C80.6823 29.2952 81.4503 29.5153 82.0548 29.9925C82.6593 30.4697 83.0516 31.1657 83.1468 31.93L83.1668 32.01ZM101.707 20.01C101.648 20.0154 101.591 20.0357 101.542 20.0689C101.493 20.1021 101.454 20.1472 101.427 20.2C101.398 20.252 101.383 20.3105 101.383 20.37C101.383 20.4295 101.398 20.488 101.427 20.54C102.427 22.2075 102.998 24.0975 103.087 26.04C101.717 24.54 98.4568 21.34 95.7168 21.58C95.6588 21.5841 95.603 21.604 95.5554 21.6375C95.5078 21.671 95.4703 21.7168 95.4468 21.77C95.4179 21.822 95.4027 21.8805 95.4027 21.94C95.4027 21.9995 95.4179 22.058 95.4468 22.11C96.4285 23.6905 96.7851 25.5805 96.4468 27.41C95.4468 26.05 92.7268 22.82 90.4968 23.02C90.4318 23.0229 90.3693 23.0454 90.3175 23.0847C90.2656 23.1241 90.2271 23.1782 90.2068 23.24C90.1822 23.2994 90.1766 23.365 90.191 23.4277C90.2053 23.4904 90.2388 23.5472 90.2868 23.59C90.8291 24.1446 91.2261 24.8245 91.4424 25.5695C91.6587 26.3144 91.6877 27.1012 91.5268 27.86C90.9057 26.9115 90.0521 26.1378 89.0474 25.6127C88.0426 25.0875 86.9201 24.8284 85.7868 24.86C85.7236 24.864 85.6626 24.8846 85.61 24.9197C85.5573 24.9549 85.5148 25.0032 85.4868 25.06C85.4622 25.1173 85.4539 25.1803 85.4627 25.242C85.4715 25.3037 85.4972 25.3619 85.5368 25.41C86.2217 26.3319 86.6372 27.4258 86.7368 28.57C84.8747 28.1058 82.948 27.9571 81.0368 28.13C80.1107 28.2154 79.1918 28.3658 78.2868 28.58C82.2868 24.93 97.1368 12.15 105.777 17.32C105.827 17.32 110.517 20.63 111.447 25.39C109.707 23.69 104.937 19.68 101.707 19.96V20.01Z" fill="#E5E5E5"/>
<path d="M60.1768 40.68C50.9168 35.15 35.6468 48.47 31.7668 52.1C32.5494 49.7979 33.9054 47.733 35.7068 46.1C35.749 46.0669 35.7828 46.0243 35.8054 45.9756C35.828 45.9269 35.8388 45.8736 35.8368 45.82C35.8369 45.7684 35.8242 45.7176 35.7998 45.6722C35.7753 45.6268 35.7399 45.5883 35.6968 45.56C34.839 44.9802 33.8319 44.6607 32.7968 44.64C33.3295 43.9837 34.0139 43.4669 34.7909 43.1342C35.5679 42.8014 36.4142 42.6627 37.2568 42.73C37.319 42.7392 37.3825 42.7299 37.4394 42.7032C37.4963 42.6765 37.5441 42.6337 37.5768 42.58C37.6084 42.5253 37.625 42.4632 37.625 42.4C37.625 42.3368 37.6084 42.2747 37.5768 42.22C37.168 41.6016 36.6032 41.1021 35.9395 40.7719C35.2757 40.4418 34.5366 40.2928 33.7968 40.34C35.1068 39.34 38.0768 38.98 39.2768 38.94C39.3408 38.9394 39.4033 38.9201 39.4565 38.8846C39.5098 38.8491 39.5516 38.7988 39.5768 38.74C39.6014 38.6827 39.6097 38.6197 39.6009 38.558C39.592 38.4963 39.5664 38.4381 39.5268 38.39C38.3688 37.0431 36.7271 36.2061 34.9568 36.06C36.6168 34.06 41.5368 33.46 41.5868 33.45C41.657 33.4446 41.7235 33.4162 41.7759 33.3692C41.8283 33.3222 41.8638 33.2592 41.8768 33.19C41.8933 33.1513 41.9019 33.1097 41.9023 33.0676C41.9027 33.0255 41.8947 32.9837 41.8789 32.9447C41.8632 32.9057 41.8398 32.8702 41.8103 32.8402C41.7807 32.8102 41.7456 32.7864 41.7068 32.77C40.1461 31.7761 38.3766 31.1567 36.5368 30.96C38.5368 28.48 44.8968 26.96 44.9668 26.96C45.0346 26.9441 45.0959 26.9078 45.1424 26.8559C45.1889 26.804 45.2184 26.7391 45.2268 26.67C45.2346 26.6018 45.2217 26.5328 45.1895 26.4721C45.1574 26.4114 45.1076 26.3619 45.0468 26.33C40.7868 24.11 35.5868 26.27 35.3468 26.33C29.3468 29.33 29.0768 39.28 29.7068 46.17C27.3468 37.8 22.2168 24.69 13.1468 24C12.8468 24 5.7768 24 1.8968 28.57C1.85763 28.6256 1.83662 28.692 1.83662 28.76C1.83662 28.828 1.85763 28.8944 1.8968 28.95C1.93177 29.0098 1.98366 29.0578 2.04597 29.0881C2.10827 29.1184 2.17816 29.1295 2.24677 29.12C2.33677 29.12 10.7868 27.75 14.2468 29.85C12.1361 30.9444 10.3212 32.5329 8.9568 34.48C8.91593 34.5387 8.89402 34.6085 8.89402 34.68C8.89402 34.7515 8.91593 34.8213 8.9568 34.88C8.99749 34.9372 9.05491 34.9804 9.12116 35.0037C9.18741 35.027 9.25924 35.0292 9.32679 35.01C9.39679 35.01 15.6668 33.26 18.5468 34.96C17.5328 35.4515 16.6274 36.1409 15.8837 36.9875C15.1401 37.8342 14.5734 38.821 14.2168 39.89C14.1961 39.9508 14.1936 40.0162 14.2096 40.0784C14.2256 40.1406 14.2594 40.1967 14.3068 40.24C14.3516 40.2851 14.4088 40.3158 14.4711 40.3283C14.5335 40.3408 14.5981 40.3344 14.6568 40.31C16.1468 39.76 20.0268 38.67 22.0268 39.41C21.106 39.6779 20.2758 40.192 19.6255 40.8968C18.9753 41.6017 18.5297 42.4706 18.3368 43.41C18.3271 43.4726 18.335 43.5366 18.3598 43.5949C18.3845 43.6532 18.425 43.7035 18.4768 43.74C18.5315 43.7716 18.5936 43.7882 18.6568 43.7882C18.72 43.7882 18.7821 43.7716 18.8368 43.74C19.8259 43.2307 20.9279 42.9801 22.04 43.0116C23.152 43.0431 24.2381 43.3556 25.1968 43.92C23.9482 44.4256 22.8792 45.2927 22.1268 46.41C22.1023 46.4562 22.0895 46.5077 22.0895 46.56C22.0895 46.6123 22.1023 46.6638 22.1268 46.71C22.1453 46.7593 22.1747 46.8038 22.2128 46.8401C22.2509 46.8765 22.2967 46.9038 22.3468 46.92C25.2902 47.9759 27.909 49.7781 29.9468 52.15C25.0068 50.24 8.24677 44.49 2.36677 52.15C2.22677 52.36 -1.08323 57.35 0.366769 62.24C0.386745 62.3056 0.426085 62.3636 0.479623 62.4064C0.533161 62.4493 0.598445 62.4749 0.666818 62.48H0.716806C0.77675 62.4736 0.834009 62.4518 0.883065 62.4168C0.932121 62.3817 0.971278 62.3346 0.996774 62.28C0.996774 62.21 3.91681 55.77 6.93681 54.28C6.75667 56.2525 7.04446 58.2396 7.7768 60.08C7.80004 60.1458 7.84351 60.2025 7.90101 60.242C7.9585 60.2816 8.02706 60.3019 8.09681 60.3C8.16867 60.2989 8.23832 60.2751 8.29582 60.232C8.35331 60.1889 8.39566 60.1287 8.41679 60.06C8.41679 60.01 10.0668 54.93 12.5268 53.62C12.4173 54.5555 12.4933 55.5034 12.7507 56.4094C13.0081 57.3155 13.4418 58.1618 14.0268 58.9C14.0669 58.949 14.1203 58.9855 14.1806 59.005C14.2409 59.0245 14.3055 59.0262 14.3668 59.01C14.4284 58.9975 14.485 58.9671 14.5295 58.9226C14.5739 58.8782 14.6043 58.8216 14.6168 58.76C14.9068 57.5 15.8768 54.4 17.2468 53.26C17.0378 54.0276 17.0369 54.837 17.2443 55.605C17.4517 56.373 17.8598 57.0719 18.4268 57.63C18.4735 57.672 18.5306 57.7006 18.5922 57.713C18.6538 57.7253 18.7176 57.7208 18.7768 57.7C18.8365 57.6765 18.8887 57.637 18.9275 57.5858C18.9663 57.5347 18.9903 57.4739 18.9968 57.41C19.1021 56.5062 19.4257 55.6416 19.9396 54.8907C20.4536 54.1399 21.1424 53.5253 21.9468 53.1C21.7476 54.192 21.8728 55.3184 22.3068 56.34C22.3268 56.388 22.3582 56.4303 22.3983 56.4634C22.4384 56.4965 22.4859 56.5194 22.5368 56.53C22.5873 56.5411 22.6396 56.5406 22.6899 56.5285C22.7401 56.5164 22.787 56.4929 22.8268 56.46C23.6169 55.8403 24.48 55.3197 25.3968 54.91C24.9964 55.2794 24.6855 55.7354 24.488 56.2432C24.2904 56.7509 24.2113 57.2971 24.2568 57.84C24.3382 58.7932 24.7947 59.6752 25.526 60.2921C26.2572 60.9089 27.2035 61.2103 28.1568 61.13C28.9405 61.0612 29.6792 60.7341 30.2568 60.2C31.1068 62.42 34.3568 73.06 28.8568 94.2C21.4368 96.43 20.2568 98.77 19.2268 100.84C18.8928 101.592 18.4478 102.29 17.9068 102.91C17.384 103.649 17.0748 104.518 17.0131 105.421C16.9513 106.324 17.1395 107.227 17.5568 108.03C18.9268 110.89 23.4368 114.03 37.0968 112.88C46.4968 112.08 52.2868 109.88 54.3068 106.34C54.7168 105.662 54.9629 104.898 55.0254 104.108C55.0879 103.318 54.9651 102.524 54.6668 101.79C52.6668 97.01 47.5468 93.14 42.6668 92.67C41.8868 84.96 39.4968 66.89 33.8368 59.67C34.0761 59.695 34.3175 59.695 34.5568 59.67C35.5109 59.5861 36.3928 59.1274 37.0095 58.3946C37.6261 57.6617 37.9272 56.7144 37.8468 55.76C37.7846 55.0427 37.5082 54.3607 37.0535 53.8026C36.5987 53.2444 35.9867 52.8358 35.2968 52.63C37.2231 52.4626 39.1639 52.6422 41.0268 53.16C41.0719 53.1821 41.1215 53.1935 41.1718 53.1935C41.222 53.1935 41.2716 53.1821 41.3168 53.16C41.3611 53.1322 41.398 53.094 41.4242 53.0487C41.4503 53.0033 41.465 52.9523 41.4668 52.9C41.492 51.6563 41.1436 50.4337 40.4668 49.39C41.483 49.4859 42.4592 49.8332 43.3077 50.4005C44.1561 50.9679 44.85 51.7375 45.3268 52.64C45.3544 52.6962 45.3971 52.7437 45.45 52.7773C45.503 52.8108 45.5642 52.829 45.6268 52.83C45.6895 52.829 45.7506 52.8108 45.8036 52.7773C45.8565 52.7437 45.8992 52.6962 45.9268 52.64C46.2897 51.8305 46.4256 50.9376 46.3199 50.0568C46.2142 49.176 45.8709 48.3406 45.3268 47.64C47.2068 48.19 49.5268 51.04 50.3268 52.24C50.3611 52.2896 50.4078 52.3295 50.4621 52.3557C50.5164 52.382 50.5766 52.3938 50.6368 52.39C50.7003 52.3806 50.7596 52.3528 50.8076 52.3102C50.8555 52.2676 50.89 52.2119 50.9068 52.15C51.2031 51.1583 51.3008 50.1178 51.1944 49.0882C51.088 48.0587 50.7796 47.0602 50.2868 46.15C53.3568 46.45 57.1368 51.06 57.1768 51.15C57.2216 51.2045 57.282 51.2442 57.3498 51.2638C57.4176 51.2835 57.4898 51.2821 57.5568 51.26C57.6252 51.2377 57.6842 51.1931 57.7241 51.1332C57.764 51.0733 57.7826 51.0017 57.7768 50.93C57.7852 48.7374 57.271 46.5743 56.2768 44.62C59.9868 44.9 65.6168 50.4 65.6768 50.46C65.7259 50.5085 65.789 50.5403 65.8572 50.5511C65.9253 50.5618 65.9951 50.551 66.0568 50.52C66.1187 50.4914 66.1702 50.4443 66.2042 50.3852C66.2382 50.3261 66.2531 50.2579 66.2468 50.19C65.8168 44.62 60.4268 40.85 60.1768 40.68ZM42.2868 96.29C42.1559 97.3407 41.7251 98.3314 41.0459 99.1437C40.3666 99.9559 39.4678 100.555 38.4568 100.87C35.6168 101.87 31.6068 101.21 29.7068 99.43C29.3198 99.1157 29.0305 98.6976 28.8728 98.2246C28.7152 97.7517 28.6957 97.2436 28.8168 96.76L29.0568 95.88C31.5164 96.7941 34.136 97.1989 36.7568 97.07C38.7981 96.9877 40.7289 96.1208 42.1468 94.65C42.2368 95.56 42.2768 96.14 42.2868 96.29ZM42.0568 93.69C38.6268 98.3 30.7968 95.79 29.2268 95.22C29.6868 93.52 30.0901 91.8866 30.4368 90.32C32.2041 91.411 34.2791 91.8956 36.3468 91.7C38.2209 91.5011 40.0293 90.8972 41.6468 89.93C41.8168 91.39 41.9568 92.67 42.0568 93.69ZM41.5568 89.2C35.5568 92.8 31.4368 90.2 30.5568 89.61C30.8968 88.04 31.1768 86.54 31.4268 85.11C33.0391 85.6306 34.7376 85.831 36.4268 85.7C37.9715 85.5775 39.4702 85.1166 40.8168 84.35C41.1468 86.08 41.3668 87.77 41.5568 89.2ZM31.5568 84.43C31.8068 82.93 32.0068 81.49 32.1568 80.14C33.48 80.624 34.8932 80.8117 36.2968 80.69C37.6082 80.5788 38.8804 80.1866 40.0268 79.54C40.2968 80.93 40.5268 82.3 40.7368 83.63C39.3496 84.3932 37.8185 84.8586 36.2412 84.9963C34.6639 85.1341 33.0753 84.9412 31.5768 84.43H31.5568ZM32.2268 79.43C32.3568 78.15 32.4568 76.93 32.5168 75.78C33.6465 76.1552 34.8405 76.298 36.0268 76.2C37.125 76.1022 38.1874 75.7605 39.1368 75.2C39.4068 76.39 39.6668 77.6 39.8968 78.79C38.75 79.4597 37.4684 79.8656 36.1451 79.978C34.8218 80.0904 33.4902 79.9067 32.2468 79.44L32.2268 79.43ZM32.5568 75.07C32.5568 74 32.6168 72.99 32.6068 72.07C33.3454 72.2044 34.0985 72.2414 34.8468 72.18C36.0014 72.1021 37.1105 71.7 38.0468 71.02C38.3768 72.18 38.6868 73.37 38.9668 74.57C38.0024 75.1134 36.9314 75.4405 35.8279 75.5286C34.7245 75.6167 33.6151 75.4636 32.5768 75.08L32.5568 75.07ZM32.6068 71.34C32.6068 70.15 32.5268 69.06 32.4368 68.06C32.9744 68.1817 33.5277 68.2188 34.0768 68.17C35.0677 68.0806 36.0186 67.7361 36.8368 67.17C37.1868 68.17 37.5268 69.17 37.8368 70.26C37.0928 70.7956 36.2447 71.1694 35.3473 71.3571C34.45 71.5449 33.5232 71.5424 32.6268 71.35L32.6068 71.34ZM32.3768 67.34C32.2901 66.5 32.1901 65.73 32.0768 65.03C32.3927 65.0609 32.7109 65.0609 33.0268 65.03C33.9501 64.9656 34.8306 64.6162 35.5468 64.03C35.9168 64.82 36.2568 65.66 36.5968 66.53C36.0061 66.9788 35.3202 67.2861 34.5921 67.4283C33.864 67.5704 33.113 67.5436 32.3968 67.35L32.3768 67.34ZM31.9668 64.34C31.8168 63.54 31.6668 62.85 31.5168 62.26C31.723 62.28 31.9306 62.28 32.1368 62.26C32.8915 62.2083 33.602 61.885 34.1368 61.35C34.5542 61.9946 34.9348 62.6624 35.2768 63.35C34.8373 63.7508 34.3139 64.0486 33.7447 64.2216C33.1756 64.3946 32.575 64.4384 31.9868 64.35L31.9668 64.34ZM31.3168 61.54C31.1268 60.88 30.9568 60.39 30.8268 60.05H31.2568C31.7872 60.0013 32.2999 59.8338 32.7568 59.56C33.1134 59.9435 33.4473 60.3475 33.7568 60.77C33.4581 61.102 33.0769 61.3491 32.6519 61.4861C32.2268 61.6231 31.7731 61.6451 31.3368 61.55L31.3168 61.54ZM32.6268 58.85C32.2985 59.075 31.9288 59.2324 31.539 59.3131C31.1493 59.3938 30.7474 59.3961 30.3568 59.32C29.7378 59.1929 29.1766 58.8691 28.7567 58.397C28.3368 57.9248 28.0807 57.3295 28.0268 56.7C27.9924 56.3221 28.033 55.9412 28.1463 55.5791C28.2595 55.217 28.4432 54.8809 28.6868 54.59C28.9309 54.287 29.2341 54.0367 29.5779 53.8545C29.9217 53.6723 30.299 53.5619 30.6868 53.53H31.1168C31.4878 53.5487 31.8514 53.6404 32.1868 53.8C32.6509 54.0188 33.0495 54.3556 33.3426 54.7768C33.6356 55.198 33.813 55.6887 33.8568 56.2C33.9076 56.7107 33.8224 57.2257 33.6099 57.6929C33.3974 58.1601 33.0651 58.5627 32.6468 58.86L32.6268 58.85ZM35.6268 27.02C36.9096 26.523 38.2563 26.2099 39.6268 26.09C41.059 25.9411 42.5063 26.1084 43.8668 26.58C41.7768 27.16 36.8668 28.74 35.6268 31.16C35.5949 31.211 35.5779 31.2699 35.5779 31.33C35.5779 31.3901 35.5949 31.4491 35.6268 31.5C35.658 31.5503 35.7026 31.5909 35.7556 31.6174C35.8085 31.6439 35.8678 31.6552 35.9268 31.65C37.526 31.6882 39.0916 32.1174 40.4868 32.9C38.7068 33.23 35.0568 34.13 33.9968 36.19C33.9678 36.2402 33.9526 36.2971 33.9526 36.355C33.9526 36.4129 33.9678 36.4698 33.9968 36.52C34.0276 36.5714 34.0718 36.6134 34.1246 36.6416C34.1775 36.6698 34.237 36.6831 34.2968 36.68C35.8354 36.6871 37.3184 37.2561 38.4668 38.28C36.9468 38.41 33.5168 38.9 32.6368 40.57C32.6031 40.624 32.5852 40.6864 32.5852 40.75C32.5852 40.8136 32.6031 40.876 32.6368 40.93C32.6725 40.9847 32.7246 41.0268 32.7857 41.0501C32.8468 41.0735 32.9136 41.0769 32.9768 41.06C33.6007 40.9346 34.2456 40.96 34.8579 41.1339C35.4701 41.3078 36.0319 41.6253 36.4968 42.06C35.5344 42.077 34.5926 42.3417 33.7624 42.8286C32.9321 43.3156 32.2413 44.0083 31.7568 44.84C31.7251 44.8929 31.7083 44.9533 31.7083 45.015C31.7083 45.0766 31.7251 45.1371 31.7568 45.19C31.7913 45.2419 31.8393 45.2834 31.8958 45.3098C31.9522 45.3363 32.0148 45.3467 32.0768 45.34C33.0218 45.2747 33.9672 45.461 34.8168 45.88C33.1183 47.5227 31.8273 49.5397 31.0468 51.77C30.3368 46.97 28.1168 30.82 35.7068 27.03L35.6268 27.02ZM22.8568 46.52C23.6655 45.56 24.7248 44.8434 25.9168 44.45C25.9768 44.4328 26.0309 44.3995 26.0733 44.3537C26.1156 44.3078 26.1445 44.2512 26.1568 44.19C26.1665 44.1284 26.1596 44.0653 26.1367 44.0073C26.1138 43.9493 26.0759 43.8984 26.0268 43.86C25.0371 43.118 23.8715 42.6458 22.6444 42.4898C21.4173 42.3338 20.1707 42.4993 19.0268 42.97C19.8368 40.47 22.6868 39.97 22.8168 39.91C22.8807 39.9018 22.9407 39.8745 22.9889 39.8317C23.0371 39.7889 23.0712 39.7325 23.0868 39.67C23.1015 39.6071 23.0991 39.5415 23.0797 39.4799C23.0604 39.4183 23.0248 39.3631 22.9768 39.32C21.1168 37.76 16.6868 38.97 14.9768 39.52C15.814 37.665 17.3266 36.1989 19.2068 35.42C19.2636 35.4007 19.3142 35.3664 19.3529 35.3206C19.3917 35.2747 19.4172 35.2192 19.4268 35.16C19.437 35.1017 19.4323 35.0418 19.413 34.9858C19.3938 34.9298 19.3607 34.8797 19.3168 34.84C17.0368 32.89 12.0768 33.72 9.97678 34.19C11.2692 32.5025 12.969 31.1708 14.9168 30.32C14.9731 30.2998 15.0231 30.2652 15.0617 30.2195C15.1003 30.1739 15.1262 30.1189 15.1368 30.06C15.149 30.0017 15.1453 29.9412 15.1259 29.8848C15.1066 29.8285 15.0723 29.7784 15.0268 29.74C12.3168 27.46 5.5268 28.07 3.0268 28.38C6.8068 24.72 13.0268 24.74 13.0868 24.74C24.0068 25.58 29.1768 46.33 30.3568 51.86C28.3425 49.501 25.7813 47.6711 22.8968 46.53L22.8568 46.52ZM22.7068 55.77C22.4413 54.7876 22.4413 53.7524 22.7068 52.77C22.7254 52.7106 22.7268 52.6472 22.7109 52.587C22.6949 52.5268 22.6623 52.4724 22.6168 52.43C22.5733 52.3862 22.5184 52.3555 22.4583 52.3413C22.3982 52.3272 22.3353 52.3302 22.2768 52.35C21.3075 52.6954 20.4434 53.2843 19.7674 54.0602C19.0914 54.836 18.6263 55.7726 18.4168 56.78C18.0466 56.1973 17.8232 55.5336 17.7657 54.8456C17.7082 54.1577 17.8184 53.466 18.0868 52.83C18.1208 52.778 18.1389 52.7172 18.1389 52.655C18.1389 52.5928 18.1208 52.532 18.0868 52.48C18.0439 52.4319 17.9883 52.3969 17.9263 52.3792C17.8643 52.3615 17.7986 52.3618 17.7368 52.38C15.7968 52.95 14.5968 56.5 14.1668 58.03C13.3005 56.612 12.9939 54.9219 13.3068 53.29C13.3192 53.2325 13.3165 53.1729 13.299 53.1168C13.2815 53.0607 13.2497 53.0102 13.2068 52.97C13.1655 52.926 13.1123 52.895 13.0537 52.8808C12.9951 52.8666 12.9336 52.8698 12.8768 52.89C10.4968 53.58 8.80681 57.29 8.12681 59.06C7.57656 57.4188 7.4358 55.668 7.71681 53.96C7.73339 53.902 7.73377 53.8406 7.7179 53.7824C7.70204 53.7242 7.67053 53.6715 7.62681 53.63C7.58422 53.588 7.531 53.5584 7.47288 53.5443C7.41475 53.5302 7.35388 53.5322 7.29679 53.55C4.48679 54.39 1.82678 59.25 0.816781 61.28C0.0867811 56.99 2.90677 52.73 2.92677 52.7C4.62677 50.5 7.35678 49.51 10.4768 49.24C17.5268 48.64 26.4768 51.76 29.7868 53.01C27.2403 53.3515 24.8126 54.2979 22.7068 55.77ZM28.5068 53.92L28.3368 54.08H28.0368L28.5068 53.92ZM24.8768 57.92C24.8439 57.5357 24.8872 57.1488 25.0042 56.7813C25.1212 56.4138 25.3096 56.073 25.5586 55.7785C25.8076 55.484 26.1123 55.2416 26.4552 55.0651C26.7981 54.8886 27.1724 54.7815 27.5568 54.75H27.8568V54.8C27.8568 54.85 27.8068 54.91 27.7768 54.96C27.7084 55.0962 27.6483 55.2365 27.5968 55.38L27.5368 55.59C27.4963 55.7309 27.4662 55.8746 27.4468 56.02V56.21C27.4268 56.4262 27.4268 56.6438 27.4468 56.86C27.4621 57.0421 27.4922 57.2227 27.5368 57.4C27.5368 57.46 27.5368 57.52 27.5868 57.58L27.7068 57.92L27.7968 58.11C27.8441 58.2098 27.8976 58.3067 27.9568 58.4L28.0768 58.59C28.1345 58.6775 28.198 58.761 28.2668 58.84L28.4168 59.01C28.4884 59.0916 28.5652 59.1684 28.6468 59.24L28.8168 59.38C28.9025 59.4522 28.9927 59.519 29.0868 59.58L29.2568 59.69C29.4009 59.7719 29.5514 59.8421 29.7068 59.9C29.2447 60.2925 28.6711 60.5303 28.0668 60.58C27.6749 60.6169 27.2796 60.5748 26.9044 60.4561C26.5291 60.3375 26.1815 60.1446 25.8821 59.8891C25.5828 59.6336 25.3377 59.3205 25.1616 58.9685C24.9855 58.6165 24.8818 58.2328 24.8568 57.84L24.8768 57.92ZM54.0268 102.21C54.2821 102.858 54.3834 103.557 54.3227 104.251C54.2619 104.945 54.0408 105.616 53.6768 106.21C52.3668 108.49 48.4068 111.42 37.0068 112.4C23.0068 113.59 19.1768 110.11 18.1268 107.92C17.7749 107.238 17.6116 106.474 17.6538 105.707C17.696 104.941 17.9421 104.2 18.3668 103.56C18.9544 102.892 19.4397 102.14 19.8068 101.33C20.8068 99.33 21.8568 97.27 28.6168 95.16C28.4868 95.67 28.3468 96.16 28.2068 96.7C28.0418 97.3014 28.0561 97.9379 28.248 98.5313C28.4398 99.1247 28.8009 99.649 29.2868 100.04C30.2864 100.837 31.4333 101.429 32.6618 101.782C33.8904 102.136 35.1765 102.244 36.4468 102.1C37.2236 102.034 37.9893 101.873 38.7268 101.62C39.8596 101.264 40.8657 100.588 41.6248 99.6749C42.3838 98.7616 42.8636 97.6489 43.0068 96.47V96.4C43.0068 96.19 42.9168 95.15 42.7568 93.54C45.1941 93.9352 47.4962 94.9261 49.4587 96.4246C51.4212 97.923 52.9835 99.8828 54.0068 102.13L54.0268 102.21ZM37.1668 56.01C37.1997 56.3935 37.1568 56.7797 37.0404 57.1465C36.924 57.5134 36.7365 57.8538 36.4885 58.1481C36.2406 58.4425 35.9371 58.6852 35.5953 58.8622C35.2536 59.0393 34.8803 59.1473 34.4968 59.18C34.1614 59.2125 33.8228 59.1854 33.4968 59.1C33.5568 59.05 33.5968 58.99 33.6568 58.93L33.7368 58.84C33.8268 58.73 33.9168 58.61 33.9968 58.49C34.0668 58.38 34.1268 58.26 34.1868 58.15L34.2468 58.02C34.2468 57.93 34.3168 57.84 34.3468 57.74C34.3768 57.64 34.3468 57.64 34.3968 57.59C34.426 57.4982 34.4494 57.4047 34.4668 57.31V57.16V56.86C34.4714 56.8134 34.4714 56.7666 34.4668 56.72C34.4768 56.5702 34.4768 56.4198 34.4668 56.27C34.4668 56.12 34.4668 55.98 34.3968 55.83C34.3268 55.68 34.3968 55.74 34.3968 55.69C34.3968 55.64 34.3468 55.5 34.3168 55.41L34.2568 55.25C34.2243 55.1649 34.1876 55.0814 34.1468 55C34.1241 54.948 34.0973 54.8978 34.0668 54.85C34.0668 54.77 33.9768 54.69 33.9268 54.61L33.8368 54.48C33.7755 54.3867 33.7051 54.2996 33.6268 54.22L33.5668 54.14C33.4718 54.0383 33.3716 53.9415 33.2668 53.85L33.1468 53.76L32.9768 53.62C33.275 53.4895 33.5925 53.4084 33.9168 53.38C34.6823 53.2952 35.4503 53.5153 36.0548 53.9925C36.6593 54.4697 37.0516 55.1657 37.1468 55.93L37.1668 56.01ZM55.7068 44.01C55.6479 44.0154 55.5913 44.0357 55.5423 44.0689C55.4933 44.1021 55.4536 44.1472 55.4268 44.2C55.3979 44.252 55.3827 44.3105 55.3827 44.37C55.3827 44.4295 55.3979 44.488 55.4268 44.54C56.4271 46.2075 56.9975 48.0975 57.0868 50.04C55.7168 48.54 52.4568 45.34 49.7168 45.58C49.6588 45.5841 49.603 45.604 49.5554 45.6375C49.5078 45.671 49.4703 45.7168 49.4468 45.77C49.4179 45.822 49.4027 45.8805 49.4027 45.94C49.4027 45.9995 49.4179 46.058 49.4468 46.11C50.4285 47.6905 50.7851 49.5805 50.4468 51.41C49.4468 50.05 46.7268 46.82 44.4968 47.02C44.4318 47.0229 44.3693 47.0454 44.3175 47.0847C44.2656 47.1241 44.2271 47.1782 44.2068 47.24C44.1822 47.2994 44.1766 47.365 44.191 47.4277C44.2053 47.4904 44.2388 47.5472 44.2868 47.59C44.8291 48.1446 45.2261 48.8245 45.4424 49.5695C45.6587 50.3144 45.6877 51.1012 45.5268 51.86C44.9057 50.9115 44.0521 50.1378 43.0474 49.6127C42.0426 49.0875 40.9201 48.8284 39.7868 48.86C39.7236 48.864 39.6626 48.8846 39.61 48.9197C39.5573 48.9549 39.5148 49.0032 39.4868 49.06C39.4622 49.1173 39.4539 49.1803 39.4627 49.242C39.4715 49.3037 39.4972 49.3619 39.5368 49.41C40.2217 50.3319 40.6372 51.4258 40.7368 52.57C38.8747 52.1058 36.948 51.9571 35.0368 52.13C34.1107 52.2154 33.1918 52.3658 32.2868 52.58C36.2868 48.93 51.1368 36.15 59.7768 41.32C59.8268 41.32 64.5168 44.63 65.4468 49.39C63.7068 47.69 58.9368 43.68 55.7068 43.96V44.01Z" fill="#E5E5E5"/>
</svg>
